<svg xmlns="http://www.w3.org/2000/svg" width="54" height="54" viewBox="0 0 54 54"><g transform="translate(-1247.285 -2773)"><circle cx="27" cy="27" r="27" transform="translate(1247.285 2773)" fill="#fff"/><path d="M27.263,27.269H22.524V19.844c0-1.771-.036-4.049-2.469-4.049-2.471,0-2.848,1.927-2.848,3.919v7.556H12.468V12H17.02v2.081h.061a4.994,4.994,0,0,1,4.493-2.467c4.8,0,5.689,3.16,5.689,7.273v8.381ZM7.116,9.911A2.752,2.752,0,1,1,9.868,7.157,2.749,2.749,0,0,1,7.116,9.911ZM9.492,27.269H4.74V12H9.492ZM29.633,0H2.361A2.333,2.333,0,0,0,0,2.305V29.695A2.332,2.332,0,0,0,2.361,32H29.629A2.341,2.341,0,0,0,32,29.695V2.305A2.342,2.342,0,0,0,29.629,0Z" transform="translate(1258.285 2784)" fill="#545454"/></g></svg>