<svg xmlns="http://www.w3.org/2000/svg" width="54" height="54" viewBox="0 0 54 54"><g transform="translate(-150 -1829)"><g transform="translate(150 1829)" fill="#545454" stroke="#707070" stroke-width="1"><circle cx="27" cy="27" r="27" stroke="none"/><circle cx="27" cy="27" r="26.5" fill="none"/></g><path d="M5.466,5.315H14.1V3H5.466A2.4,2.4,0,0,0,3,5.315v8.1H5.466Zm7.4,10.418L7.932,21.52h14.8l-3.7-4.63-2.5,3.137ZM21.5,10.524a1.853,1.853,0,0,0-3.7,0,1.853,1.853,0,0,0,3.7,0ZM25.194,3H16.563V5.315h8.631v8.1H27.66v-8.1A2.4,2.4,0,0,0,25.194,3Zm0,20.835H16.563V26.15h8.631a2.4,2.4,0,0,0,2.466-2.315v-8.1H25.194Zm-19.728-8.1H3v8.1A2.4,2.4,0,0,0,5.466,26.15H14.1V23.835H5.466Z" transform="translate(161.67 1840.5)" fill="#fff"/></g></svg>