<svg xmlns="http://www.w3.org/2000/svg" width="54" height="54" viewBox="0 0 54 54"><g transform="translate(-150 -1736)"><g transform="translate(150 1736)" fill="#545454" stroke="#707070" stroke-width="1"><circle cx="27" cy="27" r="27" stroke="none"/><circle cx="27" cy="27" r="26.5" fill="none"/></g><path d="M8.044,13.985a4.86,4.86,0,0,0-4.681,3.269.736.736,0,0,1-.7.451c-.535,0-2.19-1.251-2.661-1.553,0,3.723,1.827,7,6.165,7,3.654,0,6.165-1.979,6.165-5.434a3.686,3.686,0,0,0-.047-.413L8.044,13.985ZM22.054,0a3.044,3.044,0,0,0-1.937.744C10.272,9,9.247,9.193,9.247,11.623a3.973,3.973,0,0,0,.42,1.75l3.074,2.4a4.7,4.7,0,0,0,1.078.137c2.991,0,4.725-2.056,10.17-11.595A4.447,4.447,0,0,0,24.66,2.24,2.45,2.45,0,0,0,22.054,0Z" transform="translate(165.34 1751.426)" fill="#fff"/></g></svg>